<?xml version="1.0" encoding="UTF-8"?>
<svg width="16" height="16" viewBox="0 0 16 16" fill="none" xmlns="http://www.w3.org/2000/svg">
  <rect width="16" height="16" rx="3" fill="#1DA1F2"/>
  <path d="M13 5c-.4.2-.9.4-1.4.5.5-.3.9-.8 1.1-1.4-.5.3-1 .5-1.6.6-.4-.5-1.1-.8-1.8-.8-1.4 0-2.5 1.1-2.5 2.5 0 .2 0 .4.1.6-2.1-.1-3.9-1.1-5.1-2.6-.2.4-.3.8-.3 1.3 0 .9.4 1.6 1.1 2.1-.4 0-.8-.1-1.2-.3v.1c0 1.2.9 2.2 2 2.4-.2.1-.4.1-.7.1-.2 0-.3 0-.5-.1.3 1 1.2 1.7 2.3 1.7-.8.6-1.9 1-3 1-.2 0-.4 0-.6 0 1.1.7 2.4 1.1 3.8 1.1 4.6 0 7.1-3.8 7.1-7.1v-.3c.5-.4.9-.8 1.2-1.3z" fill="white"/>
</svg> 